<svg width="201" height="210" viewBox="0 0 201 210" fill="none" xmlns="http://www.w3.org/2000/svg">
<g opacity="0.65">
<rect width="76.6854" height="72.1745" transform="matrix(0.420884 0.907115 -0.996026 -0.0890614 167.602 121.26)" fill="#EDF6CB" stroke="#2E3421" stroke-width="0.902181"/>
<rect width="76.6854" height="75.7832" transform="matrix(0.420884 0.907115 -0.575143 0.818053 95.7031 114.834)" fill="#C8D68E" fill-opacity="0.52" stroke="#2E3421" stroke-width="0.902181"/>
<rect width="72.1745" height="75.7832" transform="matrix(0.996026 0.0890614 -0.575143 0.818053 127.977 184.404)" fill="#B2C28A" stroke="#2E3421" stroke-width="0.902181"/>
<circle cx="3.76433" cy="3.76433" r="3.76433" transform="matrix(-0.535107 0.844784 0.844784 0.535107 86.7578 176.877)" fill="#546629"/>
<circle cx="4.35531" cy="4.35531" r="4.35531" transform="matrix(-0.668521 0.743693 0.743693 0.668521 161.164 204.402)" fill="#546629"/>
<circle cx="4.35531" cy="4.35531" r="4.35531" transform="matrix(-0.668521 0.743693 0.743693 0.668521 147 198.598)" fill="#546629"/>
<circle cx="4.35531" cy="4.35531" r="4.35531" transform="matrix(-0.668521 0.743693 0.743693 0.668521 141.07 209.477)" fill="#546629"/>
<circle cx="3.76433" cy="3.76433" r="3.76433" transform="matrix(-0.535107 0.844784 0.844784 0.535107 156.586 133.422)" fill="#546629"/>
<circle cx="3.76433" cy="3.76433" r="3.76433" transform="matrix(-0.535107 0.844784 0.844784 0.535107 133.344 133.422)" fill="#546629"/>
<circle cx="3.76433" cy="3.76433" r="3.76433" transform="matrix(-0.535107 0.844784 0.844784 0.535107 145.727 144.285)" fill="#546629"/>
<circle cx="3.76433" cy="3.76433" r="3.76433" transform="matrix(-0.535107 0.844784 0.844784 0.535107 158.141 155.15)" fill="#546629"/>
<circle cx="3.76433" cy="3.76433" r="3.76433" transform="matrix(-0.535107 0.844784 0.844784 0.535107 136.414 155.15)" fill="#546629"/>
<rect width="76.6854" height="72.1745" transform="matrix(0.992984 0.118246 -0.598896 0.800827 1.10156 30.8418)" fill="#EDF6CB" stroke="#2E3421" stroke-width="0.902181"/>
<rect width="76.6854" height="75.7832" transform="matrix(0.992984 0.118246 0.394088 0.919073 -42.0938 88.6465)" fill="#C8D68E" fill-opacity="0.52" stroke="#2E3421" stroke-width="0.902181"/>
<rect width="72.1745" height="75.7832" transform="matrix(0.598896 -0.800827 0.394088 0.919073 34.0391 97.7188)" fill="#B2C28A" stroke="#2E3421" stroke-width="0.902181"/>
<circle cx="3.76433" cy="3.76433" r="3.76433" transform="matrix(0.437862 0.899042 0.899042 -0.437862 5.99219 128.836)" fill="#546629"/>
<circle cx="4.35531" cy="4.35531" r="4.35531" transform="matrix(0.281767 0.959483 0.959483 -0.281767 68.4609 80.0039)" fill="#546629"/>
<circle cx="4.35531" cy="4.35531" r="4.35531" transform="matrix(0.281767 0.959483 0.959483 -0.281767 56.125 88.9863)" fill="#546629"/>
<circle cx="4.35531" cy="4.35531" r="4.35531" transform="matrix(0.281767 0.959483 0.959483 -0.281767 62.25 99.7344)" fill="#546629"/>
<circle cx="4.35531" cy="4.35531" r="4.35531" transform="matrix(0.281767 0.959483 0.959483 -0.281767 74.4219 92.6602)" fill="#546629"/>
<circle cx="4.35531" cy="4.35531" r="4.35531" transform="matrix(0.281767 0.959483 0.959483 -0.281767 67.9297 112.496)" fill="#546629"/>
<circle cx="4.35531" cy="4.35531" r="4.35531" transform="matrix(0.281767 0.959483 0.959483 -0.281767 80.0234 105.451)" fill="#546629"/>
<circle cx="3.76433" cy="3.76433" r="3.76433" transform="matrix(0.437862 0.899042 0.899042 -0.437862 5.67188 46.5957)" fill="#546629"/>
<circle cx="3.76433" cy="3.76433" r="3.76433" transform="matrix(0.437862 0.899042 0.899042 -0.437862 -6.53906 66.4102)" fill="#546629"/>
<circle cx="3.76433" cy="3.76433" r="3.76433" transform="matrix(0.437862 0.899042 0.899042 -0.437862 9.20312 61.543)" fill="#546629"/>
<circle cx="3.76433" cy="3.76433" r="3.76433" transform="matrix(0.437862 0.899042 0.899042 -0.437862 25.0078 56.6914)" fill="#546629"/>
<circle cx="3.76433" cy="3.76433" r="3.76433" transform="matrix(0.437862 0.899042 0.899042 -0.437862 13.5781 75.1719)" fill="#546629"/>
</g>
</svg>
