<svg width="31" height="23" viewBox="0 0 31 23" fill="none" xmlns="http://www.w3.org/2000/svg">
<path d="M26.2832 1.9425C26.2747 1.92625 26.2603 1.91351 26.243 1.90657C24.2331 1.00857 22.112 0.368233 19.9329 0.00157065C19.9131 -0.00201339 19.8927 0.000572188 19.8745 0.00895967C19.8564 0.0173472 19.8414 0.0311095 19.8316 0.0482895C19.5428 0.558751 19.2806 1.08308 19.046 1.61927C16.6971 1.27206 14.3078 1.27206 11.9589 1.61927C11.7228 1.08172 11.4564 0.557259 11.161 0.0482895C11.1508 0.0314828 11.1357 0.0180375 11.1176 0.00970446C11.0995 0.00137147 11.0793 -0.00146289 11.0595 0.00157065C8.88021 0.367463 6.75904 1.00785 4.74941 1.90662C4.73219 1.91372 4.71767 1.92585 4.70785 1.94132C0.688955 7.78569 -0.411973 13.4864 0.128106 19.1165C0.129625 19.1303 0.133979 19.1436 0.140907 19.1558C0.147836 19.1679 0.157199 19.1784 0.168438 19.187C2.50861 20.8743 5.12611 22.1623 7.90926 22.9958C7.92885 23.0017 7.94979 23.0014 7.96924 22.9951C7.98867 22.9889 8.0057 22.9771 8.01802 22.9612C8.61578 22.1691 9.14544 21.3305 9.60162 20.4536C9.60788 20.4416 9.61146 20.4284 9.61211 20.4149C9.61276 20.4014 9.61048 20.3879 9.6054 20.3755C9.60033 20.3629 9.59258 20.3516 9.58266 20.3421C9.57276 20.3327 9.56089 20.3254 9.54789 20.3208C8.71265 20.0095 7.90405 19.6345 7.12966 19.1988C7.11559 19.1909 7.10378 19.1795 7.09526 19.1659C7.08675 19.1524 7.08179 19.137 7.08082 19.1211C7.07986 19.1053 7.08291 19.0894 7.08973 19.0749C7.09655 19.0605 7.10691 19.048 7.11992 19.0383C7.28241 18.9198 7.44499 18.7965 7.60016 18.672C7.61393 18.6609 7.63062 18.6537 7.6483 18.6514C7.66601 18.6491 7.68402 18.6518 7.70032 18.6588C12.7736 20.9134 18.2662 20.9134 23.2794 18.6588C23.2959 18.6513 23.314 18.6484 23.332 18.6505C23.3499 18.6525 23.3669 18.6596 23.3809 18.6708C23.5361 18.7953 23.6987 18.9198 23.8624 19.0383C23.8754 19.0478 23.8859 19.0604 23.8929 19.0748C23.8997 19.0892 23.9028 19.105 23.902 19.1208C23.9012 19.1367 23.8963 19.1521 23.888 19.1657C23.8795 19.1794 23.8678 19.1907 23.8539 19.1988C23.0812 19.6381 22.2719 20.013 21.4344 20.3196C21.4214 20.3245 21.4096 20.3318 21.3998 20.3415C21.3899 20.351 21.3822 20.3625 21.3773 20.3751C21.3723 20.3878 21.3701 20.4013 21.371 20.4148C21.3716 20.4284 21.3754 20.4416 21.3817 20.4536C21.8456 21.3256 22.3744 22.1632 22.964 22.9598C22.9761 22.9761 22.9931 22.9883 23.0125 22.9948C23.0321 23.0012 23.0531 23.0015 23.0729 22.9957C25.8611 22.1649 28.483 20.8769 30.8261 19.187C30.8376 19.1789 30.847 19.1685 30.854 19.1565C30.8611 19.1446 30.8653 19.1314 30.8664 19.1176C31.513 12.6087 29.784 6.95472 26.2832 1.9425ZM10.3593 15.6883C8.83182 15.6883 7.57327 14.3234 7.57327 12.647C7.57327 10.9707 8.80741 9.60563 10.3593 9.60563C11.9232 9.60563 13.1696 10.9825 13.1452 12.6469C13.1452 14.3234 11.911 15.6883 10.3593 15.6883ZM20.6599 15.6883C19.1326 15.6883 17.874 14.3234 17.874 12.647C17.874 10.9707 19.1081 9.60563 20.6599 9.60563C22.2241 9.60563 23.4703 10.9825 23.446 12.6469C23.446 14.3234 22.2241 15.6883 20.6599 15.6883Z" fill="#45512A"/>
</svg>
