<svg width="156" height="95" viewBox="0 0 156 95" fill="none" xmlns="http://www.w3.org/2000/svg">
<path d="M53.9308 57.2554C54.0756 54.5594 54.7843 52.1491 56.057 50.0245C57.3732 47.9002 59.0567 46.2345 61.1074 45.0275C63.2017 43.8207 65.5102 43.224 68.0329 43.2374C70.0337 43.2481 71.5763 43.539 72.6607 44.1102C73.7451 44.6814 74.1539 45.51 73.8871 46.596C73.7097 47.2475 73.4029 47.6809 72.9668 47.896C72.5742 48.1114 72.0735 48.1958 71.4648 48.149C70.8996 48.1025 70.2474 48.0556 69.5082 48.0082C67.0736 47.7777 64.8975 48.0271 62.9797 48.7564C61.1057 49.4424 59.5994 50.5218 58.4606 51.9946C57.3654 53.4677 56.8123 55.2264 56.8015 57.2707L53.9308 57.2554ZM54.2054 79.2444C53.4224 79.2403 52.8147 79.0196 52.382 78.5823C51.9494 78.145 51.7351 77.5349 51.7393 76.752L51.9026 46.0225C51.9068 45.2396 52.1275 44.6318 52.5648 44.1991C53.002 43.7665 53.6121 43.5523 54.395 43.5564C55.1779 43.5606 55.7857 43.7813 56.2184 44.2186C56.651 44.6558 56.8653 45.2659 56.8611 46.0488L56.6978 76.7784C56.6936 77.5613 56.4729 78.1691 56.0356 78.6017C55.5984 79.0344 54.9883 79.2486 54.2054 79.2444ZM95.764 79.7915C92.3714 79.7735 89.3091 78.9743 86.5772 77.3939C83.8888 75.8137 81.7471 73.671 80.1521 70.9657C78.6009 68.2172 77.8125 65.1465 77.787 61.7536L77.9507 30.9588C77.9549 30.1759 78.1756 29.5681 78.6128 29.1355C79.0938 28.6596 79.7258 28.4237 80.5087 28.4279C81.2481 28.4318 81.834 28.6741 82.2665 29.1549C82.7426 29.5924 82.9786 30.2026 82.9744 30.9855L82.8725 50.167C84.3187 48.1304 86.2194 46.5093 88.5746 45.304C90.9736 44.0553 93.6302 43.4387 96.5444 43.4542C99.8935 43.472 102.89 44.2926 105.535 45.9161C108.18 47.496 110.256 49.6601 111.764 52.4084C113.315 55.157 114.082 58.2493 114.064 61.6854C114.045 65.1651 113.224 68.2707 111.6 71.0024C110.02 73.7343 107.855 75.8976 105.106 77.4924C102.358 79.0436 99.2437 79.81 95.764 79.7915ZM95.7883 75.2245C98.311 75.2379 100.576 74.6628 102.583 73.499C104.59 72.2918 106.165 70.669 107.306 68.6307C108.492 66.5927 109.091 64.2688 109.105 61.6591C109.119 59.0928 108.544 56.7845 107.38 54.7339C106.261 52.6401 104.703 51.0007 102.709 49.8157C100.714 48.6307 98.4556 48.0315 95.9329 48.0181C93.4537 48.0049 91.2105 48.5802 89.2035 49.744C87.1965 50.9077 85.622 52.5305 84.48 54.6122C83.3382 56.6505 82.7605 58.9528 82.7469 61.519C82.733 64.1287 83.2861 66.4587 84.4061 68.509C85.5261 70.5593 87.0833 72.1987 89.0776 73.4272C91.0722 74.6122 93.3091 75.2113 95.7883 75.2245ZM123.496 79.6127C122.713 79.6085 122.084 79.3877 121.608 78.9502C121.175 78.4695 120.961 77.8376 120.965 77.0547L121.128 46.4556C121.132 45.6727 121.353 45.0649 121.79 44.6323C122.271 44.1564 122.903 43.9205 123.686 43.9247C124.425 43.9286 125.011 44.171 125.444 44.6517C125.92 45.0892 126.156 45.6994 126.152 46.4823L125.989 77.0814C125.985 77.8643 125.742 78.4937 125.261 78.9696C124.824 79.4023 124.236 79.6166 123.496 79.6127ZM123.657 37.139C122.7 37.134 121.875 36.7816 121.183 36.082C120.491 35.3824 120.147 34.5323 120.153 33.5319C120.158 32.4446 120.511 31.5982 121.21 30.993C121.953 30.3445 122.803 30.0228 123.76 30.0279C124.673 30.0327 125.476 30.3632 126.168 31.0194C126.905 31.6322 127.27 32.4824 127.264 33.5697C127.259 34.5701 126.906 35.4164 126.207 36.1087C125.507 36.8009 124.657 37.1444 123.657 37.139ZM148.815 79.7473C146.509 79.735 144.446 79.1803 142.625 78.0832C140.848 76.9864 139.442 75.5 138.408 73.6242C137.374 71.7048 136.864 69.5273 136.877 67.0915L137.046 35.1876C137.05 34.4482 137.271 33.8404 137.708 33.3643C138.189 32.8884 138.8 32.6524 139.539 32.6563C140.279 32.6602 140.886 32.9027 141.362 33.3837C141.838 33.8647 142.074 34.4749 142.07 35.2143L141.9 67.1182C141.889 69.3365 142.531 71.1668 143.829 72.6091C145.126 74.0078 146.797 74.7127 148.841 74.7235L150.603 74.7329C151.299 74.7366 151.863 74.9788 152.295 75.4596C152.728 75.9404 152.942 76.5504 152.938 77.2899C152.934 78.0293 152.67 78.6368 152.145 79.1125C151.621 79.5447 150.968 79.7587 150.185 79.7545L148.815 79.7473ZM132.729 49.6491C132.076 49.6456 131.533 49.447 131.101 49.0532C130.668 48.6159 130.453 48.0928 130.456 47.4839C130.46 46.8315 130.68 46.3107 131.117 45.9215C131.554 45.4889 132.099 45.2743 132.752 45.2778L149.389 45.3662C150.041 45.3697 150.584 45.59 151.016 46.0273C151.449 46.4211 151.664 46.9442 151.66 47.5966C151.657 48.2055 151.437 48.7263 151 49.159C150.563 49.5481 150.018 49.7409 149.366 49.7375L132.729 49.6491Z" fill="#2E3421"/>
<circle cx="123.803" cy="34.1568" r="5.49857" fill="#EB8F44"/>
<path d="M42.1405 44.5869L42.1408 22.789C42.1409 11.9745 33.3743 3.2077 22.5598 3.20763V3.20763V3.20763C12.3327 3.20763 3.7649 11.1965 3.67223 21.4231C3.66793 21.8985 3.66564 22.3625 3.66564 22.8118" stroke="#EB8F44" stroke-width="4.56128"/>
<path d="M2.45232 45.0205L2.35225 58.5687C2.27171 69.4726 11.0097 78.3949 21.913 78.5419V78.5419C32.7379 78.6879 41.6805 70.1255 42.0048 59.3045L42.0687 57.1722" stroke="#2E3421" stroke-width="4.56128"/>
<path d="M33.2322 38.8425L33.2056 57.978C33.1973 63.9707 28.2937 68.8019 22.3016 68.7211V68.7211C16.3862 68.6413 11.6458 63.8002 11.6905 57.8844L11.8026 43.0276C11.8317 39.1698 7.41564 36.9624 4.34699 39.3009V39.3009C3.19457 40.1791 2.51818 41.5449 2.5182 42.9937L2.51825 45.3876" stroke="#2E3421" stroke-width="4.56128"/>
<path d="M22.4963 12.9922L22.4586 10.7119L22.496 10.7112L22.5333 10.7118L22.4963 12.9922ZM21.8631 13.0026L21.8255 10.7223L21.8631 13.0026ZM14.2134 30.8572C14.2134 32.1168 13.1923 33.1378 11.9328 33.1378C10.6732 33.1378 9.65212 32.1168 9.65212 30.8572H14.2134ZM22.5339 15.2725L21.9007 15.283L21.8255 10.7223L22.4586 10.7119L22.5339 15.2725ZM14.2134 23.0981L14.2134 30.8572H9.65212L9.65212 23.0981H14.2134ZM30.9381 39.2196V26.7824H35.4994L35.4994 39.2196H30.9381ZM30.9381 26.7824L30.9381 23.8903H35.4994V26.7824H30.9381ZM9.65212 23.0981C9.65212 16.3418 15.0701 10.8337 21.8255 10.7223L21.9007 15.283C17.6348 15.3533 14.2134 18.8316 14.2134 23.0981H9.65212ZM22.5333 10.7118C29.7281 10.8287 35.4994 16.6946 35.4994 23.8903H30.9381C30.9381 19.1848 27.1641 15.349 22.4592 15.2725L22.5333 10.7118Z" fill="#2E3421"/>
<ellipse cx="3.08164" cy="3.07332" rx="3.08164" ry="3.07332" transform="matrix(0.999985 0.00543151 -0.00547953 0.999985 39.0547 53.791)" fill="#2E3421"/>
<ellipse cx="42.3768" cy="44.544" rx="3.04085" ry="3.42096" fill="#EB8F44"/>
<ellipse cx="2.52221" cy="2.52136" rx="2.52221" ry="2.52136" transform="matrix(0.999985 0.00543151 -0.00547953 0.999985 1.60156 28.9355)" fill="#EB8F44"/>
<circle cx="4.04085" cy="22.2205" r="3.04085" fill="#EB8F44"/>
</svg>
