<svg width="65" height="28" viewBox="0 0 65 28" fill="none" xmlns="http://www.w3.org/2000/svg">
<path d="M7.1315 3.04257C8.19744 3.36463 9.21149 3.80983 10.1478 4.36681C11.4701 4.06539 12.8297 3.91396 14.1945 3.91612C15.604 3.91612 16.9638 4.0731 18.2385 4.36555C19.1744 3.80911 20.188 3.36434 21.2533 3.04257C22.2427 2.74253 23.6522 2.25639 24.4896 3.08309C25.0574 3.64519 25.1993 4.5871 25.3001 5.30618C25.4137 6.10883 25.4406 7.15455 25.1426 8.19267C26.2823 9.50551 26.9693 11.0716 26.9693 12.7781C26.9693 15.3633 25.3995 17.6079 23.0759 19.1626C21.9576 19.9013 20.7174 20.4805 19.3996 20.8793C19.7033 21.4996 19.8722 22.1858 19.8722 22.9061V26.7041C19.8722 27.0399 19.7227 27.3619 19.4565 27.5993C19.1903 27.8368 18.8293 27.9701 18.4528 27.9701H9.93628C9.55983 27.9701 9.19879 27.8368 8.9326 27.5993C8.66641 27.3619 8.51686 27.0399 8.51686 26.7041V25.4495C7.16131 25.5976 6.02435 25.466 5.05773 25.1001C4.0471 24.7178 3.34306 24.1253 2.81362 23.5581C2.31114 23.0213 1.76325 21.811 0.97121 21.5756C0.794316 21.523 0.630755 21.4399 0.489866 21.331C0.348978 21.2221 0.233522 21.0895 0.150089 20.9408C-0.0184117 20.6405 -0.0462434 20.2927 0.0727161 19.9741C0.191676 19.6554 0.447682 19.392 0.784416 19.2417C1.12115 19.0914 1.51103 19.0666 1.86829 19.1727C2.81362 19.4537 3.42965 20.0614 3.85122 20.5501C4.53254 21.335 5.08612 22.3605 6.16488 22.7694C6.60916 22.9378 7.26067 23.0479 8.27982 22.9239L8.51686 22.8808C8.51957 22.1918 8.68043 21.5107 8.98953 20.8793C7.67172 20.4805 6.43146 19.9013 5.31322 19.1626C2.98963 17.6079 1.41975 15.3646 1.41975 12.7781C1.41975 11.0741 2.10533 9.50931 3.24229 8.19773C2.94421 7.15961 2.96976 6.11136 3.08331 5.30745L3.09041 5.25934C3.19403 4.52253 3.31468 3.65532 3.8938 3.08309C4.73126 2.25639 6.14217 2.7438 7.13008 3.04384L7.1315 3.04257Z" fill="#45512A"/>
</svg>
