<svg width="29" height="22" viewBox="0 0 29 22" fill="none" xmlns="http://www.w3.org/2000/svg">
<mask id="mask0_1932_4850" style="mask-type:luminance" maskUnits="userSpaceOnUse" x="0" y="0" width="29" height="22">
<path d="M28.4518 0.201172H0V22H28.4518V0.201172Z" fill="white"/>
</mask>
<g mask="url(#mask0_1932_4850)">
<path d="M25.8056 5.6524C25.8221 5.88605 25.8221 6.11976 25.8221 6.35343C25.8221 13.4803 20.4941 21.6921 10.7563 21.6921C7.75621 21.6921 4.96931 20.8075 2.625 19.272C3.05125 19.322 3.46105 19.3388 3.9037 19.3388C6.3791 19.3388 8.65785 18.4875 10.4776 17.0354C8.14965 16.9853 6.19881 15.4331 5.52665 13.2967C5.85456 13.3467 6.18241 13.3801 6.52671 13.3801C7.00211 13.3801 7.47755 13.3133 7.92016 13.1966C5.49391 12.6958 3.67415 10.5261 3.67415 7.90564V7.8389C4.37906 8.23948 5.1988 8.48983 6.06761 8.52318C4.64135 7.5551 3.70695 5.90276 3.70695 4.0334C3.70695 3.03197 3.9692 2.11399 4.42825 1.31284C7.03486 4.58419 10.953 6.72056 15.3464 6.95427C15.2645 6.55369 15.2153 6.13647 15.2153 5.71919C15.2153 2.74823 17.5759 0.328125 20.5104 0.328125C22.035 0.328125 23.4121 0.979056 24.3793 2.03056C25.5761 1.79691 26.7236 1.34624 27.7401 0.728702C27.3466 1.98053 26.5104 3.03203 25.4121 3.69961C26.4778 3.58284 27.5106 3.28233 28.4613 2.86511C27.7401 3.93326 26.8384 4.88458 25.8056 5.6524Z" fill="#45512A"/>
</g>
</svg>
